<svg width="18" height="18" viewBox="0 0 18 18" fill="none" xmlns="http://www.w3.org/2000/svg">
<rect x="15" y="8" width="2" height="2" fill="white"/>
<rect x="9" y="8" width="2" height="2" fill="white"/>
<rect x="11" y="12" width="2" height="2" fill="white"/>
<rect x="5" y="12" width="2" height="2" fill="white"/>
<rect x="13" y="10" width="2" height="2" fill="white"/>
<rect x="7" y="10" width="2" height="2" fill="white"/>
<rect x="9" y="14" width="2" height="2" fill="white"/>
<rect x="3" y="14" width="2" height="2" fill="white"/>
<rect x="7" y="16" width="2" height="2" fill="white"/>
<rect x="1" y="16" width="2" height="2" fill="white"/>
<rect width="2" height="2" transform="matrix(-1 0 0 1 3 0)" fill="white"/>
<rect width="2" height="2" transform="matrix(-1 0 0 1 9 0)" fill="white"/>
<rect width="2" height="2" transform="matrix(-1 0 0 1 7 4)" fill="white"/>
<rect width="2" height="2" transform="matrix(-1 0 0 1 13 4)" fill="white"/>
<rect width="2" height="2" transform="matrix(-1 0 0 1 5 2)" fill="white"/>
<rect width="2" height="2" transform="matrix(-1 0 0 1 11 2)" fill="white"/>
<rect width="2" height="2" transform="matrix(-1 0 0 1 9 6)" fill="white"/>
<rect width="2" height="2" transform="matrix(-1 0 0 1 15 6)" fill="white"/>
</svg>
