<svg width="18" height="18" viewBox="0 0 18 18" fill="none" xmlns="http://www.w3.org/2000/svg">
<rect x="3" y="10" width="2" height="2" transform="rotate(180 3 10)" fill="white"/>
<rect x="9" y="10" width="2" height="2" transform="rotate(180 9 10)" fill="white"/>
<rect x="7" y="6" width="2" height="2" transform="rotate(180 7 6)" fill="white"/>
<rect x="13" y="6" width="2" height="2" transform="rotate(180 13 6)" fill="white"/>
<rect x="5" y="8" width="2" height="2" transform="rotate(180 5 8)" fill="white"/>
<rect x="11" y="8" width="2" height="2" transform="rotate(180 11 8)" fill="white"/>
<rect x="9" y="4" width="2" height="2" transform="rotate(180 9 4)" fill="white"/>
<rect x="15" y="4" width="2" height="2" transform="rotate(180 15 4)" fill="white"/>
<rect x="11" y="2" width="2" height="2" transform="rotate(180 11 2)" fill="white"/>
<rect x="17" y="2" width="2" height="2" transform="rotate(180 17 2)" fill="white"/>
<rect width="2" height="2" transform="matrix(1 0 0 -1 15 18)" fill="white"/>
<rect width="2" height="2" transform="matrix(1 0 0 -1 9 18)" fill="white"/>
<rect width="2" height="2" transform="matrix(1 0 0 -1 11 14)" fill="white"/>
<rect width="2" height="2" transform="matrix(1 0 0 -1 5 14)" fill="white"/>
<rect width="2" height="2" transform="matrix(1 0 0 -1 13 16)" fill="white"/>
<rect width="2" height="2" transform="matrix(1 0 0 -1 7 16)" fill="white"/>
<rect width="2" height="2" transform="matrix(1 0 0 -1 9 12)" fill="white"/>
<rect width="2" height="2" transform="matrix(1 0 0 -1 3 12)" fill="white"/>
</svg>
