<svg width="18" height="18" viewBox="0 0 18 18" fill="none" xmlns="http://www.w3.org/2000/svg">
<rect x="13" y="8" width="2" height="2" fill="white"/>
<rect x="9" y="12" width="2" height="2" fill="white"/>
<rect x="11" y="10" width="2" height="2" fill="white"/>
<rect x="7" y="14" width="2" height="2" fill="white"/>
<rect x="5" y="16" width="2" height="2" fill="white"/>
<rect width="2" height="2" transform="matrix(-1 0 0 1 7 0)" fill="white"/>
<rect width="2" height="18" transform="matrix(-1 0 0 1 5 0)" fill="white"/>
<rect width="2" height="2" transform="matrix(-1 0 0 1 11 4)" fill="white"/>
<rect width="2" height="2" transform="matrix(-1 0 0 1 9 2)" fill="white"/>
<rect width="2" height="2" transform="matrix(-1 0 0 1 13 6)" fill="white"/>
</svg>
