<svg width="40" height="40" viewBox="0 0 40 40" fill="none" xmlns="http://www.w3.org/2000/svg">
<path d="M20.5405 1.37927H19.1621V2.75858H20.5405V1.37927Z" fill="#E8C96F"/>
<path d="M20.5405 35.8621H19.1621V38.6207H20.5405V35.8621Z" fill="#954F2B"/>
<path d="M19.1626 5.51721H17.7842V8.27583H19.1626V5.51721Z" fill="#1A1A1A"/>
<path d="M17.7836 8.27576H16.4053V11.0344H17.7836V8.27576Z" fill="#1A1A1A"/>
<path d="M20.5405 2.75854H19.1621V5.51717H20.5405V2.75854Z" fill="#1A1A1A"/>
<path d="M16.4057 11.0344H15.0273V13.793H16.4057V11.0344Z" fill="#1A1A1A"/>
<path d="M15.0268 13.7931H13.6484V15.1724H15.0268V13.7931Z" fill="#1A1A1A"/>
<path d="M13.6489 15.1724H12.2705V16.5517H13.6489V15.1724Z" fill="#1A1A1A"/>
<path d="M17.7836 16.5518V17.9311H16.4052V19.3104H15.0268V17.9311H13.6484V16.5518H17.7836Z" fill="#1A1A1A"/>
<path d="M15.0268 19.3103H13.6484V20.6896H15.0268V19.3103Z" fill="#1A1A1A"/>
<path d="M13.6489 20.6896H12.2705V22.0689H13.6489V20.6896Z" fill="#1A1A1A"/>
<path d="M12.27 22.0688H10.8916V23.4482H12.27V22.0688Z" fill="#1A1A1A"/>
<path d="M10.8911 23.4482H9.5127V24.8276H10.8911V23.4482Z" fill="#1A1A1A"/>
<path d="M13.6478 26.2069V27.5862H12.2694V28.9655H10.8911V27.5862H9.5127V26.2069H13.6478Z" fill="#1A1A1A"/>
<path d="M10.8911 28.9655H9.5127V30.3448H10.8911V28.9655Z" fill="#1A1A1A"/>
<path d="M9.51412 30.3448H8.13574V31.7242H9.51412V30.3448Z" fill="#1A1A1A"/>
<path d="M8.13521 31.7241H6.75684V33.1034H8.13521V31.7241Z" fill="#1A1A1A"/>
<path d="M6.75728 33.1034H5.37891V34.4827H6.75728V33.1034Z" fill="#1A1A1A"/>
<path d="M5.37837 34.4828H4V35.8621H5.37837V34.4828Z" fill="#1A1A1A"/>
<path d="M9.51412 24.8275H8.13574V26.2068H9.51412V24.8275Z" fill="#1A1A1A"/>
<path d="M21.9184 5.51721H20.54V8.27583H21.9184V5.51721Z" fill="#1A1A1A"/>
<path d="M23.2973 8.27588H21.9189V11.0345H23.2973V8.27588Z" fill="#1A1A1A"/>
<path d="M24.6752 11.0344H23.2969V13.793H24.6752V11.0344Z" fill="#1A1A1A"/>
<path d="M26.0542 13.7931H24.6758V15.1724H26.0542V13.7931Z" fill="#1A1A1A"/>
<path d="M27.4321 15.1724H26.0537V16.5517H27.4321V15.1724Z" fill="#1A1A1A"/>
<path d="M26.0541 16.5518V17.9311H24.6757V19.3104H23.2973V17.9311H21.9189V16.5518H26.0541Z" fill="#1A1A1A"/>
<path d="M26.0542 19.3103H24.6758V20.6896H26.0542V19.3103Z" fill="#1A1A1A"/>
<path d="M27.4321 20.6896H26.0537V22.0689H27.4321V20.6896Z" fill="#1A1A1A"/>
<path d="M28.811 22.0688H27.4326V23.4482H28.811V22.0688Z" fill="#1A1A1A"/>
<path d="M30.1899 23.4482H28.8115V24.8276H30.1899V23.4482Z" fill="#1A1A1A"/>
<path d="M30.1899 28.9655H28.8115V30.3448H30.1899V28.9655Z" fill="#1A1A1A"/>
<path d="M31.5668 30.3448H30.1885V31.7242H31.5668V30.3448Z" fill="#1A1A1A"/>
<path d="M32.9458 31.7241H31.5674V33.1034H32.9458V31.7241Z" fill="#1A1A1A"/>
<path d="M34.3237 33.1034H32.9453V34.4827H34.3237V33.1034Z" fill="#1A1A1A"/>
<path d="M35.7026 34.4828H34.3242V35.8621H35.7026V34.4828Z" fill="#1A1A1A"/>
<path d="M31.5668 24.8275H30.1885V26.2068H31.5668V24.8275Z" fill="#1A1A1A"/>
<path d="M34.3247 34.4827V35.862H28.8112H23.2978H16.4059H10.8924H5.37891V34.4827H6.75728V33.1034H8.13565V31.7241H9.51402V30.3448H10.8924V28.9655H12.2708V27.5862H13.6491V26.2069H9.51402V24.8276H10.8924V23.4482H12.2708V22.0689H13.6491V20.6896H15.0275V19.3103H16.4059V17.931H17.7843V16.5517H13.6491V15.1724H15.0275V13.7931H16.4059V11.0345H17.7843V8.27583H19.1626V5.51721H20.541V8.27583H21.9194V11.0345H23.2978V13.7931H24.6761V15.1724H26.0545V16.5517H21.9194V17.931H23.2978V19.3103H24.6761V20.6896H26.0545V22.0689H27.4329V23.4482H28.8112V24.8276H30.1896V26.2069H26.0545V27.5862H27.4329V28.9655H28.8112V30.3448H30.1896V31.7241H31.568V33.1034H32.9464V34.4827H34.3247Z" fill="#019472"/>
<path d="M30.1888 26.2069V27.5862H28.8105V28.9655H27.4321V27.5862H26.0537V26.2069H30.1888Z" fill="#1A1A1A"/>
<path d="M20.5405 0H19.1621V1.37931H20.5405V0Z" fill="#1A1A1A"/>
<path d="M19.1626 1.37927H17.7842V2.75858H19.1626V1.37927Z" fill="#1A1A1A"/>
<path d="M21.9184 1.37927H20.54V2.75858H21.9184V1.37927Z" fill="#1A1A1A"/>
<path d="M26.0541 15.1724H21.9189V16.5517H26.0541V15.1724Z" fill="#005642"/>
<path d="M30.1888 24.8275H26.0537V26.2068H30.1888V24.8275Z" fill="#005642"/>
<path d="M32.9458 33.1034H31.5674V34.4827H32.9458V33.1034Z" fill="#005642"/>
<path d="M28.811 33.1034H27.4326V34.4827H28.811V33.1034Z" fill="#005642"/>
<path d="M26.0542 33.1034H24.6758V34.4827H26.0542V33.1034Z" fill="#005642"/>
<path d="M23.2973 33.1034H21.9189V34.4827H23.2973V33.1034Z" fill="#005642"/>
<path d="M20.5405 33.1034H19.1621V34.4827H20.5405V33.1034Z" fill="#005642"/>
<path d="M17.7836 33.1034H16.4053V34.4827H17.7836V33.1034Z" fill="#005642"/>
<path d="M15.0268 33.1034H13.6484V34.4827H15.0268V33.1034Z" fill="#005642"/>
<path d="M12.27 33.1034H10.8916V34.4827H12.27V33.1034Z" fill="#005642"/>
<path d="M9.51412 33.1034H8.13574V34.4827H9.51412V33.1034Z" fill="#005642"/>
<path d="M34.3241 34.4828H31.5674V35.8621H34.3241V34.4828Z" fill="#005642"/>
<path d="M28.8105 34.4828H26.0537V35.8621H28.8105V34.4828Z" fill="#005642"/>
<path d="M23.2968 34.4828H20.54V35.8621H23.2968V34.4828Z" fill="#005642"/>
<path d="M19.162 34.4828H16.4053V35.8621H19.162V34.4828Z" fill="#005642"/>
<path d="M13.6483 34.4828H10.8916V35.8621H13.6483V34.4828Z" fill="#005642"/>
<path d="M8.13565 34.4828H5.37891V35.8621H8.13565V34.4828Z" fill="#005642"/>
<path d="M30.1899 30.3448H28.8115V31.7242H30.1899V30.3448Z" fill="#005642"/>
<path d="M31.5668 31.7241H30.1885V33.1034H31.5668V31.7241Z" fill="#005642"/>
<path d="M27.4321 27.5862H26.0537V28.9655H27.4321V27.5862Z" fill="#005642"/>
<path d="M28.811 28.9655H27.4326V30.3448H28.811V28.9655Z" fill="#005642"/>
<path d="M26.0542 26.2069H24.6758V27.5862H26.0542V26.2069Z" fill="#005642"/>
<path d="M24.6752 24.8275H23.2969V26.2068H24.6752V24.8275Z" fill="#005642"/>
<path d="M23.2973 26.2069H21.9189V27.5862H23.2973V26.2069Z" fill="#005642"/>
<path d="M21.9184 24.8275H20.54V26.2068H21.9184V24.8275Z" fill="#005642"/>
<path d="M20.5405 26.2069H19.1621V27.5862H20.5405V26.2069Z" fill="#005642"/>
<path d="M19.1626 24.8275H17.7842V26.2068H19.1626V24.8275Z" fill="#005642"/>
<path d="M17.7836 26.2069H16.4053V27.5862H17.7836V26.2069Z" fill="#005642"/>
<path d="M31.5668 33.1034H30.1885V34.4827H31.5668V33.1034Z" fill="#005642"/>
<path d="M16.4057 24.8275H15.0273V26.2068H16.4057V24.8275Z" fill="#005642"/>
<path d="M15.0268 26.2069H13.6484V27.5862H15.0268V26.2069Z" fill="#005642"/>
<path d="M13.6489 24.8275H12.2705V26.2068H13.6489V24.8275Z" fill="#005642"/>
<path d="M20.5405 15.1724H19.1621V16.5517H20.5405V15.1724Z" fill="#005642"/>
<path d="M19.1626 16.5518H17.7842V17.9311H19.1626V16.5518Z" fill="#005642"/>
<path d="M17.7836 15.1724H16.4053V16.5517H17.7836V15.1724Z" fill="#005642"/>
<path d="M28.811 23.4482H27.4326V24.8276H28.811V23.4482Z" fill="#005642"/>
<path d="M27.4321 22.069H26.0537V23.4483H27.4321V22.069Z" fill="#005642"/>
<path d="M26.0542 20.6896H24.6758V22.0689H26.0542V20.6896Z" fill="#005642"/>
<path d="M24.6752 19.3103H23.2969V20.6896H24.6752V19.3103Z" fill="#005642"/>
<path d="M23.2973 17.931H21.9189V19.3103H23.2973V17.931Z" fill="#005642"/>
<path d="M21.9184 16.5518H20.54V17.9311H21.9184V16.5518Z" fill="#005642"/>
<path d="M24.6752 13.7931H23.2969V15.1724H24.6752V13.7931Z" fill="#005642"/>
<path d="M23.2973 11.0344H21.9189V13.793H23.2973V11.0344Z" fill="#005642"/>
<path d="M21.9184 8.27588H20.54V11.0345H21.9184V8.27588Z" fill="#005642"/>
<path d="M8.13565 35.8621H5.37891V37.2414H8.13565V35.8621Z" fill="#1A1A1A"/>
<path d="M10.8925 34.4828H8.13574V35.8621H10.8925V34.4828Z" fill="#1A1A1A"/>
<path d="M13.6483 35.8621H10.8916V37.2414H13.6483V35.8621Z" fill="#1A1A1A"/>
<path d="M26.0536 34.4828H23.2969V35.8621H26.0536V34.4828Z" fill="#1A1A1A"/>
<path d="M28.8105 35.8621H26.0537V37.2414H28.8105V35.8621Z" fill="#1A1A1A"/>
<path d="M31.5683 34.4828H28.8115V35.8621H31.5683V34.4828Z" fill="#1A1A1A"/>
<path d="M34.3241 35.8621H31.5674V37.2414H34.3241V35.8621Z" fill="#1A1A1A"/>
<path d="M16.4052 34.4828H13.6484V35.8621H16.4052V34.4828Z" fill="#1A1A1A"/>
<path d="M17.7836 35.8621H16.4053V37.2414H17.7836V35.8621Z" fill="#1A1A1A"/>
<path d="M23.2973 35.8621H21.9189V37.2414H23.2973V35.8621Z" fill="#1A1A1A"/>
<path d="M20.5405 34.4828H19.1621V35.8621H20.5405V34.4828Z" fill="#1A1A1A"/>
<path d="M21.9193 38.6206H17.7842V39.9999H21.9193V38.6206Z" fill="#1A1A1A"/>
<path d="M19.1626 35.8621H17.7842V38.6207H19.1626V35.8621Z" fill="#1A1A1A"/>
<path d="M21.9184 35.8621H20.54V38.6207H21.9184V35.8621Z" fill="#1A1A1A"/>
<path d="M21.9184 8.27588H20.54V9.65519H21.9184V8.27588Z" fill="#CAD2D5"/>
<path d="M27.4321 22.069H26.0537V23.4483H27.4321V22.069Z" fill="#CAD2D5"/>
<path d="M17.7836 17.931H16.4053V19.3103H17.7836V17.931Z" fill="white"/>
<path d="M20.5409 19.3103H17.7842V20.6896H20.5409V19.3103Z" fill="white"/>
<path d="M23.2968 20.6896H20.54V22.0689H23.2968V20.6896Z" fill="white"/>
<path d="M26.0536 22.069H23.2969V23.4483H26.0536V22.069Z" fill="white"/>
<path d="M27.4321 27.5862H26.0537V28.9655H27.4321V27.5862Z" fill="#CAD2D5"/>
<path d="M26.0536 28.9655H23.2969V30.3448H26.0536V28.9655Z" fill="white"/>
<path d="M12.27 28.9655H10.8916V30.3448H12.27V28.9655Z" fill="white"/>
<path d="M23.2968 30.3448H20.54V31.7242H23.2968V30.3448Z" fill="white"/>
<path d="M20.5408 31.7241H15.0273V33.1034H20.5408V31.7241Z" fill="white"/>
<path d="M15.0273 30.3448H12.2705V31.7242H15.0273V30.3448Z" fill="white"/>
<path d="M20.5409 9.65515H17.7842V11.0345H20.5409V9.65515Z" fill="white"/>
<path d="M17.7846 22.0688H16.4062V23.4482H17.7846V22.0688Z" fill="#E8C96F"/>
<path d="M17.7846 20.6896H16.4062V22.0689H17.7846V20.6896Z" fill="#1A1A1A"/>
<path d="M16.4057 22.0688H15.0273V23.4482H16.4057V22.0688Z" fill="#1A1A1A"/>
<path d="M17.7846 23.4482H16.4062V24.8276H17.7846V23.4482Z" fill="#1A1A1A"/>
<path d="M19.1626 22.0688H17.7842V23.4482H19.1626V22.0688Z" fill="#1A1A1A"/>
<path d="M30.1889 30.3447H28.8105V31.724H30.1889V30.3447Z" fill="#E8C96F"/>
<path d="M30.1889 28.9655H28.8105V30.3448H30.1889V28.9655Z" fill="#1A1A1A"/>
<path d="M28.81 30.3447H27.4316V31.724H28.81V30.3447Z" fill="#1A1A1A"/>
<path d="M30.1889 31.7241H28.8105V33.1034H30.1889V31.7241Z" fill="#1A1A1A"/>
<path d="M31.5668 30.3447H30.1885V31.724H31.5668V30.3447Z" fill="#1A1A1A"/>
<path d="M23.2983 27.5862H21.9199V28.9655H23.2983V27.5862Z" fill="#FF3314"/>
<path d="M23.2983 26.2069H21.9199V27.5862H23.2983V26.2069Z" fill="#1A1A1A"/>
<path d="M21.9194 27.5862H20.541V28.9655H21.9194V27.5862Z" fill="#1A1A1A"/>
<path d="M23.2983 28.9656H21.9199V30.3449H23.2983V28.9656Z" fill="#1A1A1A"/>
<path d="M24.6762 27.5862H23.2979V28.9655H24.6762V27.5862Z" fill="#1A1A1A"/>
<path d="M15.0278 30.3447H13.6494V31.724H15.0278V30.3447Z" fill="#FF3314"/>
<path d="M15.0278 28.9655H13.6494V30.3448H15.0278V28.9655Z" fill="#1A1A1A"/>
<path d="M13.6489 30.3447H12.2705V31.724H13.6489V30.3447Z" fill="#1A1A1A"/>
<path d="M15.0278 31.7241H13.6494V33.1034H15.0278V31.7241Z" fill="#1A1A1A"/>
<path d="M16.4057 30.3447H15.0273V31.724H16.4057V30.3447Z" fill="#1A1A1A"/>
<path d="M21.9184 12.4137H20.54V13.793H21.9184V12.4137Z" fill="#FF3314"/>
<path d="M21.9184 11.0344H20.54V12.4137H21.9184V11.0344Z" fill="#1A1A1A"/>
<path d="M20.5395 12.4137H19.1611V13.793H20.5395V12.4137Z" fill="#1A1A1A"/>
<path d="M21.9184 13.7931H20.54V15.1724H21.9184V13.7931Z" fill="#1A1A1A"/>
<path d="M23.2963 12.4137H21.918V13.793H23.2963V12.4137Z" fill="#1A1A1A"/>
</svg>
