<svg width="20" height="17" viewBox="0 0 20 17" fill="none" xmlns="http://www.w3.org/2000/svg">
<path d="M6.54102 9.22729V9.95457H7.26779H7.99457V9.22729H6.54102Z" fill="#1A1A1A"/>
<path d="M8.72092 9.95447H7.99414V12.8636H8.72092V9.95447Z" fill="#1A1A1A"/>
<path d="M7.26779 13.5908H6.54102V14.3181H7.26779V13.5908Z" fill="#1A1A1A"/>
<path d="M7.99436 12.8636H7.26758V13.5909H7.99436V12.8636Z" fill="#1A1A1A"/>
<path d="M7.26779 12.1364H6.54102V12.8636H7.26779V12.1364Z" fill="#1A1A1A"/>
<path d="M6.54047 11.4091H5.08691V12.1363H6.54047V11.4091Z" fill="#1A1A1A"/>
<path d="M5.08735 10.6818H3.63379V11.409H5.08735V10.6818Z" fill="#1A1A1A"/>
<path d="M4.36133 13.5908V15.0454H6.54166V14.3181H5.08811V13.5908H4.36133Z" fill="#1A1A1A"/>
<path d="M4.36057 12.8636H3.63379V13.5909H4.36057V12.8636Z" fill="#1A1A1A"/>
<path d="M1.45312 12.8636V14.3182H3.63346V13.5909H2.1799V12.8636H1.45312Z" fill="#1A1A1A"/>
<path d="M2.90744 12.1364H2.18066V12.8636H2.90744V12.1364Z" fill="#1A1A1A"/>
<path d="M0 10.6818V12.1363H2.18034V11.409H0.726779V10.6818H0Z" fill="#1A1A1A"/>
<path d="M1.45334 9.95447H0.726562V10.6817H1.45334V9.95447Z" fill="#1A1A1A"/>
<path d="M0 8.5V9.95455H0.726779V9.22727H1.45356V8.5H0Z" fill="#1A1A1A"/>
<path d="M1.45312 7.77271V8.49998H2.1799V9.22725H2.90668V7.77271H1.45312Z" fill="#1A1A1A"/>
<path d="M3.63401 9.22729H2.90723V9.95457H3.63401V9.22729Z" fill="#1A1A1A"/>
<path d="M3.63379 7.77271V9.22725H4.36057V8.49998H5.08735V7.77271H3.63379Z" fill="#1A1A1A"/>
<path d="M5.81369 8.5H5.08691V9.95455H5.81369V8.5Z" fill="#1A1A1A"/>
<path d="M1.45334 9.95455V10.6818H0.726562V11.4091H2.18012V12.1364H2.9069V12.8636H2.18012V13.5909H3.63368V12.8636H4.36046V13.5909H5.08724V14.3182H6.54079V13.5909H7.26757V12.8636H6.54079V12.1364H5.08724V11.4091H3.63368V10.6818H5.08724V11.4091H6.54079V12.1364H7.26757V12.8636H7.99435V10.6818V9.95455H7.26757H6.54079V10.6818H5.81401V9.95455H5.08724V8.5H4.36046V9.22727H3.63368V9.95455H2.9069V9.22727H2.18012V8.5H1.45334V9.22727H0.726562V9.95455H1.45334Z" fill="#019472"/>
<path d="M6.54123 9.95447H5.81445V10.6817H6.54123V9.95447Z" fill="#1A1A1A"/>
<path d="M13.0825 9.22729V9.95457H12.3557H11.6289V9.22729H13.0825Z" fill="#1A1A1A"/>
<path d="M11.6291 9.95459H10.9023V12.8637H11.6291V9.95459Z" fill="#1A1A1A"/>
<path d="M13.0822 13.5909H12.3555V14.3182H13.0822V13.5909Z" fill="#1A1A1A"/>
<path d="M12.3557 12.8636H11.6289V13.5909H12.3557V12.8636Z" fill="#1A1A1A"/>
<path d="M13.0822 12.1364H12.3555V12.8636H13.0822V12.1364Z" fill="#1A1A1A"/>
<path d="M14.5366 11.4091H13.083V12.1363H14.5366V11.4091Z" fill="#1A1A1A"/>
<path d="M15.9897 10.6818H14.5361V11.409H15.9897V10.6818Z" fill="#1A1A1A"/>
<path d="M15.2633 13.5909V15.0455H13.083V14.3182H14.5366V13.5909H15.2633Z" fill="#1A1A1A"/>
<path d="M15.9905 12.8636H15.2637V13.5909H15.9905V12.8636Z" fill="#1A1A1A"/>
<path d="M18.1696 12.8636V14.3182H15.9893V13.5909H17.4428V12.8636H18.1696Z" fill="#1A1A1A"/>
<path d="M17.4436 12.1364H16.7168V12.8636H17.4436V12.1364Z" fill="#1A1A1A"/>
<path d="M19.6237 10.6818V12.1363H17.4434V11.409H18.8969V10.6818H19.6237Z" fill="#1A1A1A"/>
<path d="M18.8967 9.95459H18.1699V10.6819H18.8967V9.95459Z" fill="#1A1A1A"/>
<path d="M19.6235 8.5V9.95455H18.8967V9.22727H18.1699V8.5H19.6235Z" fill="#1A1A1A"/>
<path d="M18.1704 7.77271V8.49998H17.4436V9.22725H16.7168V7.77271H18.1704Z" fill="#1A1A1A"/>
<path d="M16.716 9.22729H15.9893V9.95457H16.716V9.22729Z" fill="#1A1A1A"/>
<path d="M15.9897 7.77271V9.22725H15.2629V8.49998H14.5361V7.77271H15.9897Z" fill="#1A1A1A"/>
<path d="M14.5363 8.5H13.8096V9.95455H14.5363V8.5Z" fill="#1A1A1A"/>
<path d="M18.1699 9.95455V10.6818H18.8967V11.4091H17.4431V12.1364H16.7164V12.8636H17.4431V13.5909H15.9896V12.8636H15.2628V13.5909H14.536V14.3182H13.0825V13.5909H12.3557V12.8636H13.0825V12.1364H14.536V11.4091H15.9896V10.6818H14.536V11.4091H13.0825V12.1364H12.3557V12.8636H11.6289V10.6818V9.95455H12.3557H13.0825V10.6818H13.8092V9.95455H14.536V8.5H15.2628V9.22727H15.9896V9.95455H16.7164V9.22727H17.4431V8.5H18.1699V9.22727H18.8967V9.95455H18.1699Z" fill="#019472"/>
<path d="M13.8098 9.95459H13.083V10.6819H13.8098V9.95459Z" fill="#1A1A1A"/>
<path d="M7.99436 9.22717H7.26758V9.95445H7.99436V9.22717Z" fill="#1A1A1A"/>
<path d="M8.7219 9.95447H7.99512V10.6817H8.7219V9.95447Z" fill="#1A1A1A"/>
<path d="M9.44846 10.6816H8.72168V11.4089H9.44846V10.6816Z" fill="#1A1A1A"/>
<path d="M7.99457 7.04529V8.49983H7.26779V9.22711H6.54102V7.77256H7.26779V7.04529H7.99457Z" fill="#1A1A1A"/>
<path d="M7.26779 6.31799H6.54102V7.04527H7.26779V6.31799Z" fill="#1A1A1A"/>
<path d="M7.26801 4.86353V5.5908H6.54123V6.31807H5.81445V4.86353H7.26801Z" fill="#1A1A1A"/>
<path d="M7.99436 4.13623H7.26758V4.8635H7.99436V4.13623Z" fill="#1A1A1A"/>
<path d="M7.99457 2.68164V3.40891H7.26779V4.13619H6.54102V2.68164H7.99457Z" fill="#1A1A1A"/>
<path d="M9.44867 1.22717V1.95445H8.7219V2.68172H7.99512V1.22717H9.44867Z" fill="#1A1A1A"/>
<path d="M12.3557 9.22717H11.6289V9.95445H12.3557V9.22717Z" fill="#1A1A1A"/>
<path d="M11.6281 9.95447H10.9014V10.6817H11.6281V9.95447Z" fill="#1A1A1A"/>
<path d="M10.9026 10.6816H10.1758V11.4089H10.9026V10.6816Z" fill="#1A1A1A"/>
<path d="M13.0825 7.77256V9.22711H12.3557V8.49983H11.6289V7.04529H12.3557V7.77256H13.0825Z" fill="#1A1A1A"/>
<path d="M13.0822 6.31799H12.3555V7.04527H13.0822V6.31799Z" fill="#1A1A1A"/>
<path d="M13.809 4.86353V6.31807H13.0822V5.5908H12.3555V4.86353H13.809Z" fill="#1A1A1A"/>
<path d="M12.3557 4.13623H11.6289V4.8635H12.3557V4.13623Z" fill="#1A1A1A"/>
<path d="M13.0825 2.68164V4.13619H12.3557V3.40891H11.6289V2.68164H13.0825Z" fill="#1A1A1A"/>
<path d="M11.6293 1.22717V2.68172H10.9026V1.95445H10.1758V1.22717H11.6293Z" fill="#1A1A1A"/>
<path d="M13.082 5.59081V6.31808H12.3552V7.04536H11.6285V8.4999H12.3552V9.22718H11.6285V9.95445H10.9017V10.6817H10.1749V4.13626H9.44813V10.6817H8.72135V9.95445H7.99457V9.22718H7.26779V8.4999H7.99457V7.04536H7.26779V6.31808H6.54102V5.59081H7.26779V4.86354H7.99457V4.13626H7.26779V3.40899H7.99457V2.68172H8.72135V1.95445H9.44813V1.22717H10.1749V1.95445H10.9017V2.68172H11.6285V3.40899H12.3552V4.13626H11.6285V4.86354H12.3552V5.59081H13.082Z" fill="#019472"/>
<path d="M10.175 0.499878H9.44824V1.22715H10.175V0.499878Z" fill="#1A1A1A"/>
<path d="M10.1752 6.31817V4.13635H9.44846V6.31817H8.72168V7.04545H9.44846V10.6818H10.1752V7.04545H10.902V6.31817H10.1752Z" fill="#1A1A1A"/>
<path d="M6.54221 15.0454H5.81543V15.7727H6.54221V15.0454Z" fill="#1A1A1A"/>
<path d="M6.54221 12.1364H5.81543V12.8636H6.54221V12.1364Z" fill="#1A1A1A"/>
<path d="M5.81565 12.8636H5.08887V15.0455H5.81565V12.8636Z" fill="#1A1A1A"/>
<path d="M10.177 12.8636H9.4502V15.0455H10.177V12.8636Z" fill="#1A1A1A"/>
<path d="M8.72233 15.7727H6.54199V16.5H8.72233V15.7727Z" fill="#1A1A1A"/>
<path d="M8.72233 11.4091H6.54199V12.1363H8.72233V11.4091Z" fill="#1A1A1A"/>
<path d="M9.44943 15.0454H8.72266V15.7727H9.44943V15.0454Z" fill="#1A1A1A"/>
<path d="M9.44943 12.1364H8.72266V12.8636H9.44943V12.1364Z" fill="#1A1A1A"/>
<path d="M9.44932 12.8636V15.0454H8.72254V15.7727H6.54221V15.0454H5.81543V12.8636H6.54221V12.1364H8.72254V12.8636H9.44932Z" fill="#FF3314"/>
<path d="M8.72233 15.0454H6.54199V15.7727H8.72233V15.0454Z" fill="#AD1714"/>
<path d="M8.7219 14.3181H7.99512V15.0454H8.7219V14.3181Z" fill="#AD1714"/>
<path d="M6.54221 14.3181H5.81543V15.0454H6.54221V14.3181Z" fill="#AD1714"/>
<path d="M7.26877 12.8636H6.54199V13.5909H7.26877V12.8636Z" fill="white"/>
<path d="M9.44943 12.8636H8.72266V15.0455H9.44943V12.8636Z" fill="#AD1714"/>
<path d="M10.9035 15.0454H10.1768V15.7727H10.9035V15.0454Z" fill="#1A1A1A"/>
<path d="M10.9035 12.1364H10.1768V12.8636H10.9035V12.1364Z" fill="#1A1A1A"/>
<path d="M10.176 12.8635H9.44922V15.0453H10.176V12.8635Z" fill="#1A1A1A"/>
<path d="M14.5373 12.8635H13.8105V15.0453H14.5373V12.8635Z" fill="#1A1A1A"/>
<path d="M13.0827 15.7727H10.9023V16.5H13.0827V15.7727Z" fill="#1A1A1A"/>
<path d="M13.0827 11.4091H10.9023V12.1363H13.0827V11.4091Z" fill="#1A1A1A"/>
<path d="M13.8098 15.0454H13.083V15.7727H13.8098V15.0454Z" fill="#1A1A1A"/>
<path d="M13.8098 12.1364H13.083V12.8636H13.8098V12.1364Z" fill="#1A1A1A"/>
<path d="M13.8107 12.8636V15.0454H13.0839V15.7727H10.9035V15.0454H10.1768V12.8636H10.9035V12.1364H13.0839V12.8636H13.8107Z" fill="#FF3314"/>
<path d="M13.0827 15.0454H10.9023V15.7727H13.0827V15.0454Z" fill="#AD1714"/>
<path d="M13.0832 14.3181H12.3564V15.0454H13.0832V14.3181Z" fill="#AD1714"/>
<path d="M10.9035 14.3181H10.1768V15.0454H10.9035V14.3181Z" fill="#AD1714"/>
<path d="M11.6291 12.8635H10.9023V13.5908H11.6291V12.8635Z" fill="white"/>
<path d="M13.8098 12.8635H13.083V15.0453H13.8098V12.8635Z" fill="#AD1714"/>
<path d="M8.7219 11.4091H7.99512V12.1363H8.7219V11.4091Z" fill="#1A1A1A"/>
<path d="M8.7219 8.5H7.99512V9.22727H8.7219V8.5Z" fill="#1A1A1A"/>
<path d="M7.99533 9.22729H7.26855V11.4091H7.99533V9.22729Z" fill="#1A1A1A"/>
<path d="M12.3567 9.22729H11.6299V11.4091H12.3567V9.22729Z" fill="#1A1A1A"/>
<path d="M10.902 12.1364H8.72168V12.8636H10.902V12.1364Z" fill="#1A1A1A"/>
<path d="M10.902 7.77271H8.72168V8.49998H10.902V7.77271Z" fill="#1A1A1A"/>
<path d="M11.6291 11.4091H10.9023V12.1363H11.6291V11.4091Z" fill="#1A1A1A"/>
<path d="M11.6291 8.5H10.9023V9.22727H11.6291V8.5Z" fill="#1A1A1A"/>
<path d="M11.629 9.22727V11.4091H10.9022V12.1364H8.7219V11.4091H7.99512V9.22727H8.7219V8.5H10.9022V9.22727H11.629Z" fill="#FF3314"/>
<path d="M10.902 11.4091H8.72168V12.1363H10.902V11.4091Z" fill="#AD1714"/>
<path d="M10.9016 10.6818H10.1748V11.409H10.9016V10.6818Z" fill="#AD1714"/>
<path d="M8.7219 10.6818H7.99512V11.409H8.7219V10.6818Z" fill="#AD1714"/>
<path d="M9.44846 9.22729H8.72168V9.95457H9.44846V9.22729Z" fill="white"/>
<path d="M11.6291 9.22729H10.9023V11.4091H11.6291V9.22729Z" fill="#AD1714"/>
<path d="M8.72092 5.59082H7.99414V6.31809H8.72092V5.59082Z" fill="#1A1A1A"/>
<path d="M9.44846 3.40906H8.72168V4.13633H9.44846V3.40906Z" fill="#1A1A1A"/>
<path d="M11.6281 5.59082H10.9014V6.31809H11.6281V5.59082Z" fill="#1A1A1A"/>
<path d="M10.9016 3.40906H10.1748V4.13633H10.9016V3.40906Z" fill="#1A1A1A"/>
<path d="M5.08778 12.1363V11.4091H4.361V12.1363H2.90744V12.8636H2.18066V13.5909H3.63422V12.8636H4.361V13.5909H5.08778V12.8636H5.81456V12.1363H5.08778Z" fill="#005642"/>
<path d="M16.7157 12.8636V12.1363H15.2622V11.4091H14.5354V12.1363H13.8086V12.8636H14.5354V13.5909H15.2622V12.8636H15.9889V13.5909H17.4425V12.8636H16.7157Z" fill="#005642"/>
<path d="M12.3547 8.49988H11.6279V9.22715H12.3547V8.49988Z" fill="#005642"/>
<path d="M12.3551 5.5908V4.86353H11.6284V6.31807H10.9016V7.04535H10.1748V7.77262H10.9016V8.49989H11.6284V7.04535H12.3551V6.31807H13.0819V5.5908H12.3551Z" fill="#005642"/>
<path d="M8.72092 4.86353H7.99414V5.5908H8.72092V4.86353Z" fill="white"/>
<path d="M9.44846 5.59082H8.72168V6.31809H9.44846V5.59082Z" fill="white"/>
<path d="M2.90744 9.22717H2.18066V9.95445H2.90744V9.22717Z" fill="white"/>
<path d="M3.63401 9.95447H2.90723V10.6817H3.63401V9.95447Z" fill="white"/>
<path d="M15.9885 9.22717H15.2617V9.95445H15.9885V9.22717Z" fill="white"/>
<path d="M15.2629 9.95447H14.5361V10.6817H15.2629V9.95447Z" fill="white"/>
</svg>
