<svg width="15" height="17" viewBox="0 0 15 17" fill="none" xmlns="http://www.w3.org/2000/svg">
<path d="M6.281 2.78564H5.70996V3.35707H6.281V2.78564Z" fill="#1A1A1A"/>
<path d="M6.281 1.07129H5.70996V1.64272H6.281V1.07129Z" fill="#1A1A1A"/>
<path d="M5.71069 1.64307H5.13965V2.78592H5.71069V1.64307Z" fill="#1A1A1A"/>
<path d="M7.42333 0.5H6.28125V1.07143H7.42333V0.5Z" fill="#1A1A1A"/>
<path d="M7.42333 3.35693H6.28125V3.92836H7.42333V3.35693Z" fill="#1A1A1A"/>
<path d="M7.99487 2.78564H7.42383V3.35707H7.99487V2.78564Z" fill="#1A1A1A"/>
<path d="M7.99487 1.07129H7.42383V1.64272H7.99487V1.07129Z" fill="#1A1A1A"/>
<path d="M7.99412 1.64272V2.78558H7.42308V3.357H6.281V2.78558H5.70996V1.64272H6.281V1.07129H7.42308V1.64272H7.99412Z" fill="#E8C96F"/>
<path d="M8.56518 1.64307H7.99414V2.78592H8.56518V1.64307Z" fill="#1A1A1A"/>
<path d="M6.281 3.92871H5.70996V14.2144H6.281V3.92871Z" fill="#1A1A1A"/>
<path d="M7.99487 3.92871H7.42383V14.2144H7.99487V3.92871Z" fill="#1A1A1A"/>
<path d="M8.56591 13.0713H7.42383V13.6427H8.56591V13.0713Z" fill="#1A1A1A"/>
<path d="M3.9978 13.6431H3.42676V14.7859H3.9978V13.6431Z" fill="#1A1A1A"/>
<path d="M5.14013 13.0713H3.99805V13.6427H5.14013V13.0713Z" fill="#1A1A1A"/>
<path d="M7.42381 12.5H5.13965V13.0714H7.42381V12.5Z" fill="#1A1A1A"/>
<path d="M3.42651 14.7856H2.85547V15.3571H3.42651V14.7856Z" fill="#1A1A1A"/>
<path d="M1.71362 14.7856H1.14258V15.3571H1.71362V14.7856Z" fill="#1A1A1A"/>
<path d="M2.85497 14.2144H1.71289V14.7858H2.85497V14.2144Z" fill="#1A1A1A"/>
<path d="M10.8501 13.6431H9.70801V14.2145H10.8501V13.6431Z" fill="#1A1A1A"/>
<path d="M9.70751 14.2145V14.7859H8.56543V13.6431H9.13647V14.2145H9.70751Z" fill="#1A1A1A"/>
<path d="M8.56616 14.7856H7.99512V15.3571H8.56616V14.7856Z" fill="#1A1A1A"/>
<path d="M11.9927 14.2144H10.8506V14.7858H11.9927V14.2144Z" fill="#1A1A1A"/>
<path d="M12.5632 14.7856H11.9922V15.3571H12.5632V14.7856Z" fill="#1A1A1A"/>
<path d="M12.5634 15.357V15.9284H1.14258V15.357H1.71362V14.7856H2.8557V15.357H3.42674V14.7856H3.99778V13.6427H5.13986V13.0713H7.42402V13.6427H8.5661V14.7856H7.99506V15.357H8.5661V14.7856H9.70818V14.2141H10.8503V14.7856H11.9923V15.357H12.5634Z" fill="#EDEDED"/>
<path d="M13.1342 15.3569V16.4998H0.571289V15.3569H1.14233V15.9284H12.5631V15.3569H13.1342Z" fill="#1A1A1A"/>
<path d="M12.563 15.3569H11.4209V15.9284H12.563V15.3569Z" fill="#CAD2D5"/>
<path d="M8.56518 14.2144H7.99414V14.7858H8.56518V14.2144Z" fill="#CAD2D5"/>
<path d="M2.85522 14.7856H2.28418V15.3571H2.85522V14.7856Z" fill="#CAD2D5"/>
<path d="M2.28393 14.7856H1.71289V15.3571H2.28393V14.7856Z" fill="white"/>
<path d="M1.71264 15.3569H1.1416V15.9284H1.71264V15.3569Z" fill="white"/>
<path d="M3.99682 14.7856H3.42578V15.3571H3.99682V14.7856Z" fill="white"/>
<path d="M5.1394 15.3569H4.56836V15.9284H5.1394V15.3569Z" fill="white"/>
<path d="M5.71069 14.7856H5.13965V15.3571H5.71069V14.7856Z" fill="white"/>
<path d="M6.85204 14.2144H5.70996V14.7858H6.85204V14.2144Z" fill="white"/>
<path d="M10.279 14.2144H9.70801V14.7858H10.279V14.2144Z" fill="white"/>
<path d="M9.70751 14.7856H8.56543V15.3571H9.70751V14.7856Z" fill="white"/>
<path d="M6.85277 13.0713H5.13965V13.6427H6.85277V13.0713Z" fill="white"/>
<path d="M3.99707 13.6431V14.7859H4.56811V14.2145H5.13915V13.6431H3.99707Z" fill="white"/>
<path d="M7.42358 13.0713H6.85254V13.6427H7.42358V13.0713Z" fill="#CAD2D5"/>
<path d="M8.56591 13.6431H7.42383V14.2145H8.56591V13.6431Z" fill="#CAD2D5"/>
<path d="M11.9917 14.7856H10.8496V15.3571H11.9917V14.7856Z" fill="#CAD2D5"/>
<path d="M10.8503 14.2144H10.2793V14.7858H10.8503V14.2144Z" fill="#CAD2D5"/>
<path d="M6.85229 1.07129H6.28125V1.64272H6.85229V1.07129Z" fill="white"/>
<path d="M7.42333 1.64307V2.2145H6.85229V2.78592H6.28125V3.35735H7.42333V2.78592H7.99437V1.64307H7.42333Z" fill="#C29D4E"/>
<path d="M7.42333 3.92871H6.28125V12.5001H7.42333V3.92871Z" fill="#FF3314"/>
<path d="M6.85229 5.07129V5.64272H6.28125V6.78558H6.85229V6.21415H7.42333V5.07129H6.85229Z" fill="white"/>
<path d="M6.85229 7.35742V7.92885H6.28125V9.07171H6.85229V8.50028H7.42333V7.35742H6.85229Z" fill="white"/>
<path d="M6.85229 9.64307V10.2145H6.28125V11.3574H6.85229V10.7859H7.42333V9.64307H6.85229Z" fill="white"/>
<path d="M7.42358 11.9287H6.85254V12.5001H7.42358V11.9287Z" fill="white"/>
<path d="M13.1335 6.78564H12.5625V7.35707H13.1335V6.78564Z" fill="#1A1A1A"/>
<path d="M13.7048 7.35742H13.1338V7.92885H13.7048V7.35742Z" fill="#1A1A1A"/>
<path d="M13.1335 9.07129H12.5625V9.64272H13.1335V9.07129Z" fill="#1A1A1A"/>
<path d="M13.7048 8.5H13.1338V9.07143H13.7048V8.5Z" fill="#1A1A1A"/>
<path d="M14.2761 7.92871H13.7051V8.50014H14.2761V7.92871Z" fill="#1A1A1A"/>
<path d="M13.7052 7.9285V8.49993H13.1342V9.07136H12.5631V9.64279H0.571289V6.78564H12.5631V7.35707H13.1342V7.9285H13.7052Z" fill="#E8C96F"/>
<path d="M0.57104 6.78578V9.64293H12.5629V10.2144H0V6.21436H12.5629V6.78578H0.57104Z" fill="#1A1A1A"/>
<path d="M2.85522 7.92822H2.28418V9.07108H2.85522V7.92822Z" fill="#1A1A1A"/>
<path d="M1.14258 7.35693V9.07122H1.71362V7.92836H2.28466V7.35693H1.14258Z" fill="#1A1A1A"/>
<path d="M6.85302 7.35693H5.71094V9.07122H6.28198V8.49979H6.85302V9.07122H7.42406V7.92836H6.85302V7.35693Z" fill="#1A1A1A"/>
<path d="M7.99512 7.92836H8.56616V9.07122H9.1372V7.92836H9.70824V7.35693H7.99512V7.92836Z" fill="#1A1A1A"/>
<path d="M11.4214 7.35693V7.92836H10.8503V7.35693H10.2793V9.07122H10.8503V8.49979H11.4214V9.07122H11.9924V7.35693H11.4214Z" fill="#1A1A1A"/>
<path d="M3.42676 7.35693V9.07122H5.13988V7.35693H3.42676ZM4.56884 8.49979H3.9978V7.92836H4.56884V8.49979Z" fill="#1A1A1A"/>
</svg>
