<svg width="56" height="56" viewBox="0 0 56 56" fill="none" xmlns="http://www.w3.org/2000/svg">
<path fill-rule="evenodd" clip-rule="evenodd" d="M7.5 8H22V11.5H25.5V15H29V11.5H32.5V8H47H50.5V11.5H54V18.5H55.5V26H54V29.5H50.5V33H43.5V36.5H40V33H32.5V29.5H29V26H25.5V29.5H22V33H18.5V37H22V40.5H25.5V44H29V40.5H33V36.5H36.5V40H40V44H36.5V47.5H32.5V51H29.5V56H25.5V51H22V47.5H18.5V44H15V40H11.5V40.5V44H7.5V47.5H4V44H0.5V40H4V36.5H7.5V33H4V29.5H0.5V15H4V11.5H7.5V8ZM11 18.5V15H18.5V18.5H22V22.5H18.5V26H15V29.5H11V26H7.5V18.5H11ZM32.5 18.5V22.5H36.5V26H47V18.5H43.5V15H36.5V18.5H32.5Z" fill="#2000E0"/>
</svg>
