<svg width="62" height="64" viewBox="0 0 62 64" fill="none" xmlns="http://www.w3.org/2000/svg">
<path d="M12.2987 19.6924H9.83887V22.1539H12.2987V19.6924Z" fill="black"/>
<path d="M12.2987 9.84595H9.83887V12.3075H12.2987V9.84595Z" fill="black"/>
<path d="M9.83974 12.3079H7.37988V19.6925H9.83974V12.3079Z" fill="black"/>
<path d="M24.598 12.3074H22.1382V17.2304H24.598V12.3074Z" fill="black"/>
<path d="M17.219 22.1538H12.2993V24.6153H17.219V22.1538Z" fill="black"/>
<path d="M19.6789 7.38452H12.2993V9.84606H19.6789V7.38452Z" fill="black"/>
<path d="M22.1391 9.84595H19.6792V12.3075H22.1391V9.84595Z" fill="black"/>
<path d="M19.6786 24.6152H17.2188V29.5383H19.6786V24.6152Z" fill="black"/>
<path d="M24.5989 2.46143H19.6792V4.92296H24.5989V2.46143Z" fill="black"/>
<path d="M12.2996 2.46143H7.37988V4.92296H12.2996V2.46143Z" fill="black"/>
<path d="M19.6789 0H12.2993V2.46154H19.6789V0Z" fill="black"/>
<path d="M29.5194 7.38452H27.0596V12.3076H29.5194V7.38452Z" fill="black"/>
<path d="M4.92031 7.38452H2.46045V12.3076H4.92031V7.38452Z" fill="black"/>
<path d="M31.9779 12.3079H29.5181V17.2309H31.9779V12.3079Z" fill="black"/>
<path d="M2.45986 12.3079H0V19.6925H2.45986V12.3079Z" fill="black"/>
<path d="M27.0585 4.9231H24.5986V7.38463H27.0585V4.9231Z" fill="black"/>
<path d="M7.3793 4.9231H4.91943V7.38463H7.3793V4.9231Z" fill="black"/>
<path d="M12.2996 27.0769H7.37988V29.5384H12.2996V27.0769Z" fill="black"/>
<path d="M17.219 29.5383H12.2993V31.9999H17.219V29.5383Z" fill="black"/>
<path d="M4.92031 19.6924H2.46045V24.6155H4.92031V19.6924Z" fill="black"/>
<path d="M7.3793 24.6152H4.91943V27.0768H7.3793V24.6152Z" fill="black"/>
<path d="M51.6565 61.5386H46.7368V64.0001H51.6565V61.5386Z" fill="black"/>
<path d="M46.7382 56.6152H44.2783V61.5383H46.7382V56.6152Z" fill="black"/>
<path d="M51.6576 51.6921H49.1978V56.6152H51.6576V51.6921Z" fill="black"/>
<path d="M44.2772 51.6921H41.8174V56.6152H44.2772V51.6921Z" fill="black"/>
<path d="M49.1967 46.7693H46.7368V51.6924H49.1967V46.7693Z" fill="black"/>
<path d="M41.8168 46.7693H39.3569V51.6924H41.8168V46.7693Z" fill="black"/>
<path d="M46.7382 41.8462H44.2783V46.7693H46.7382V41.8462Z" fill="black"/>
<path d="M39.3583 41.8462H36.8984V46.7693H39.3583V41.8462Z" fill="black"/>
<path d="M44.2772 36.9233H41.8174V41.8464H44.2772V36.9233Z" fill="black"/>
<path d="M36.8974 36.9233H34.4375V41.8464H36.8974V36.9233Z" fill="black"/>
<path d="M41.8168 31.9998H39.3569V36.9228H41.8168V31.9998Z" fill="black"/>
<path d="M34.4389 31.9998H31.979V36.9228H34.4389V31.9998Z" fill="black"/>
<path d="M39.3583 27.0769H36.8984V32H39.3583V27.0769Z" fill="black"/>
<path d="M31.9779 27.0769H29.5181V32H31.9779V27.0769Z" fill="black"/>
<path d="M36.8974 22.1538H34.4375V27.0769H36.8974V22.1538Z" fill="black"/>
<path d="M29.5194 22.1538H27.0596V27.0769H29.5194V22.1538Z" fill="black"/>
<path d="M34.4389 17.231H31.979V22.154H34.4389V17.231Z" fill="black"/>
<path d="M27.0585 17.231H24.5986V22.154H27.0585V17.231Z" fill="black"/>
<path d="M51.6577 56.6152V61.5383H46.738V56.6152H44.2781V51.6921H41.8182V46.7691H39.3584V41.846H36.8985V36.9229H34.4387V31.9998H31.9788V27.0768H29.5189V22.1537H27.0591V17.2306H24.5992V12.3076H22.1393V9.84603H19.6795V7.3845H12.2999V9.84603H9.84003V12.3076H7.38017V19.6922H9.84003V22.1537H12.2999V24.6152H17.2196V29.5383H12.2999V27.0768H7.38017V24.6152H4.92031V19.6922H2.46045V12.3076H4.92031V7.3845H7.38017V4.92296H12.2999V2.46143H19.6795V4.92296H24.5992V7.3845H27.0591V12.3076H29.5189V17.2306H31.9788V22.1537H34.4387V27.0768H36.8985V31.9998H39.3584V36.9229H41.8182V41.846H44.2781V46.7691H46.738V51.6921H49.1978V56.6152H51.6577Z" fill="#019472"/>
<path d="M54.1161 56.6152H51.6562V61.5383H54.1161V56.6152Z" fill="black"/>
<path d="M51.6576 56.6152H49.1978V61.5383H51.6576V56.6152Z" fill="#005642"/>
<path d="M49.1967 51.6921H46.7368V56.6152H49.1967V51.6921Z" fill="#005642"/>
<path d="M46.7382 46.7693H44.2783V51.6924H46.7382V46.7693Z" fill="#005642"/>
<path d="M44.2772 41.8462H41.8174V46.7693H44.2772V41.8462Z" fill="#005642"/>
<path d="M41.8168 36.9233H39.3569V41.8464H41.8168V36.9233Z" fill="#005642"/>
<path d="M39.3583 31.9998H36.8984V36.9228H39.3583V31.9998Z" fill="#005642"/>
<path d="M36.8974 27.0769H34.4375V32H36.8974V27.0769Z" fill="#005642"/>
<path d="M34.4389 22.1538H31.979V27.0769H34.4389V22.1538Z" fill="#005642"/>
<path d="M31.9779 17.231H29.5181V22.154H31.9779V17.231Z" fill="#005642"/>
<path d="M29.5194 12.3074H27.0596V17.2304H29.5194V12.3074Z" fill="#005642"/>
<path d="M27.0585 7.38452H24.5986V12.3076H27.0585V7.38452Z" fill="#005642"/>
<path d="M24.598 4.9231H22.1382V7.38463H24.598V4.9231Z" fill="#005642"/>
<path d="M9.83974 9.84595H7.37988V12.3075H9.83974V9.84595Z" fill="#005642"/>
<path d="M12.2987 7.38452H9.83887V9.84606H12.2987V7.38452Z" fill="#005642"/>
<path d="M9.83974 19.6924H7.37988V22.1539H9.83974V19.6924Z" fill="#005642"/>
<path d="M12.2987 22.1538H9.83887V24.6153H12.2987V22.1538Z" fill="#005642"/>
<path d="M17.2196 24.6152H14.7598V27.0768H17.2196V24.6152Z" fill="#005642"/>
<path d="M14.7592 2.46143H12.2993V4.92296H14.7592V2.46143Z" fill="#FF3314"/>
<path d="M49.1967 51.6921H46.7368V54.1537H49.1967V51.6921Z" fill="#AD1714"/>
<path d="M46.7382 51.6921H44.2783V56.6152H46.7382V51.6921Z" fill="#FF3314"/>
<path d="M44.2772 41.8462H41.8174V44.3077H44.2772V41.8462Z" fill="#AD1714"/>
<path d="M41.8168 41.8462H39.3569V46.7693H41.8168V41.8462Z" fill="#FF3314"/>
<path d="M39.3583 31.9998H36.8984V34.4613H39.3583V31.9998Z" fill="#AD1714"/>
<path d="M36.8974 31.9998H34.4375V36.9228H36.8974V31.9998Z" fill="#FF3314"/>
<path d="M34.4389 22.1538H31.979V24.6153H34.4389V22.1538Z" fill="#AD1714"/>
<path d="M31.9779 22.1538H29.5181V27.0769H31.9779V22.1538Z" fill="#FF3314"/>
<path d="M29.5194 12.3074H27.0596V14.7689H29.5194V12.3074Z" fill="#AD1714"/>
<path d="M27.0585 12.3079H24.5986V17.2309H27.0585V12.3079Z" fill="#FF3314"/>
<path d="M24.598 4.9231H22.1382V7.38463H24.598V4.9231Z" fill="#AD1714"/>
<path d="M22.1391 4.9231H19.6792V9.84617H22.1391V4.9231Z" fill="#FF3314"/>
<path d="M12.2987 7.38452H9.83887V9.84606H12.2987V7.38452Z" fill="#AD1714"/>
<path d="M12.2987 4.9231H9.83887V7.38463H12.2987V4.9231Z" fill="#FF3314"/>
<path d="M7.3793 14.7693H4.91943V17.2308H7.3793V14.7693Z" fill="#FF3314"/>
<path d="M4.92031 12.3074H2.46045V17.2304H4.92031V12.3074Z" fill="#FF3314"/>
<path d="M12.2987 22.1538H9.83887V24.6153H12.2987V22.1538Z" fill="#AD1714"/>
<path d="M12.2996 24.6152H7.37988V27.0768H12.2996V24.6152Z" fill="#FF3314"/>
<path d="M7.3793 14.7693H4.91943V17.2308H7.3793V14.7693Z" fill="#AD1714"/>
<path d="M9.84082 56.6152V61.5383H14.7605V56.6152H17.2204V51.6921H19.6803V46.7691H22.1401V41.846H24.6V36.9229H27.0599V31.9998H29.5197V27.0768H31.9796V22.1537H34.4394V17.2306H36.8993V12.3076H39.3592V9.84603H41.819V7.3845H49.1986V9.84603H51.6585V12.3076H54.1183V19.6922H51.6585V22.1537H49.1986V24.6152H44.2789V29.5383H49.1986V27.0768H54.1183V24.6152H56.5782V19.6922H59.0381V12.3076H56.5782V7.3845H54.1183V4.92296H49.1986V2.46143H41.819V4.92296H36.8993V7.3845H34.4394V12.3076H31.9796V17.2306H29.5197V22.1537H27.0599V27.0768H24.6V31.9998H22.1401V36.9229H19.6803V41.846H17.2204V46.7691H14.7605V51.6921H12.3007V56.6152H9.84082Z" fill="#CAD2D5"/>
<path d="M51.6576 19.6924H49.1978V22.1539H51.6576V19.6924Z" fill="black"/>
<path d="M51.6576 9.84595H49.1978V12.3075H51.6576V9.84595Z" fill="black"/>
<path d="M54.1181 12.3074H51.6582V19.692H54.1181V12.3074Z" fill="black"/>
<path d="M39.3583 12.3079H36.8984V17.2309H39.3583V12.3079Z" fill="black"/>
<path d="M49.198 22.1538H44.2783V24.6153H49.198V22.1538Z" fill="black"/>
<path d="M49.197 7.38452H41.8174V9.84606H49.197V7.38452Z" fill="black"/>
<path d="M41.8187 9.84595H39.3589V12.3075H41.8187V9.84595Z" fill="black"/>
<path d="M44.2772 24.6152H41.8174V29.5383H44.2772V24.6152Z" fill="black"/>
<path d="M41.8182 2.46143H36.8984V4.92296H41.8182V2.46143Z" fill="black"/>
<path d="M54.1175 2.46143H49.1978V4.92296H54.1175V2.46143Z" fill="black"/>
<path d="M49.197 0H41.8174V2.46154H49.197V0Z" fill="black"/>
<path d="M34.4389 7.38452H31.979V12.3076H34.4389V7.38452Z" fill="black"/>
<path d="M59.0375 7.38452H56.5776V12.3076H59.0375V7.38452Z" fill="black"/>
<path d="M31.9779 12.3074H29.5181V17.2304H31.9779V12.3074Z" fill="black"/>
<path d="M61.4965 12.3074H59.0366V19.692H61.4965V12.3074Z" fill="black"/>
<path d="M36.8974 4.9231H34.4375V7.38463H36.8974V4.9231Z" fill="black"/>
<path d="M56.577 4.9231H54.1172V7.38463H56.577V4.9231Z" fill="black"/>
<path d="M54.1175 27.0769H49.1978V29.5384H54.1175V27.0769Z" fill="black"/>
<path d="M49.198 29.5383H44.2783V31.9999H49.198V29.5383Z" fill="black"/>
<path d="M59.0375 19.6924H56.5776V24.6155H59.0375V19.6924Z" fill="black"/>
<path d="M56.577 24.6152H54.1172V27.0768H56.577V24.6152Z" fill="black"/>
<path d="M14.7605 61.5386H9.84082V64.0001H14.7605V61.5386Z" fill="black"/>
<path d="M17.2196 56.6152H14.7598V61.5383H17.2196V56.6152Z" fill="black"/>
<path d="M12.3007 51.6921H9.84082V56.6152H12.3007V51.6921Z" fill="black"/>
<path d="M19.6786 51.6921H17.2188V56.6152H19.6786V51.6921Z" fill="black"/>
<path d="M14.7592 46.7693H12.2993V51.6924H14.7592V46.7693Z" fill="black"/>
<path d="M22.1391 46.7693H19.6792V51.6924H22.1391V46.7693Z" fill="black"/>
<path d="M17.2196 41.8462H14.7598V46.7693H17.2196V41.8462Z" fill="black"/>
<path d="M24.6 41.8462H22.1401V46.7693H24.6V41.8462Z" fill="black"/>
<path d="M19.6786 36.9229H17.2188V41.8459H19.6786V36.9229Z" fill="black"/>
<path d="M27.0585 36.9229H24.5986V41.8459H27.0585V36.9229Z" fill="black"/>
<path d="M22.1391 31.9998H19.6792V36.9228H22.1391V31.9998Z" fill="black"/>
<path d="M29.5194 31.9998H27.0596V36.9228H29.5194V31.9998Z" fill="black"/>
<path d="M24.6 27.0769H22.1401V32H24.6V27.0769Z" fill="black"/>
<path d="M31.9779 27.0769H29.5181V32H31.9779V27.0769Z" fill="black"/>
<path d="M27.0585 22.1538H24.5986V27.0769H27.0585V22.1538Z" fill="black"/>
<path d="M34.4389 22.1538H31.979V27.0769H34.4389V22.1538Z" fill="black"/>
<path d="M29.5194 17.231H27.0596V22.154H29.5194V17.231Z" fill="black"/>
<path d="M36.8974 17.231H34.4375V22.154H36.8974V17.231Z" fill="black"/>
<path d="M9.83974 56.6152H7.37988V61.5383H9.83974V56.6152Z" fill="black"/>
<path d="M9.83945 61.5386H12.2993V56.6155H9.83945V61.5386Z" fill="#EDEDED"/>
<path d="M12.2999 56.6152H14.7598V51.6922H12.2999V56.6152Z" fill="#EDEDED"/>
<path d="M14.7589 51.6921H17.2188V46.7691H14.7589V51.6921Z" fill="#EDEDED"/>
<path d="M17.2193 46.7693H19.6792V41.8462H17.2193V46.7693Z" fill="#EDEDED"/>
<path d="M19.6803 41.8462H22.1401V36.9231H19.6803V41.8462Z" fill="#EDEDED"/>
<path d="M22.1388 36.9229H24.5986V31.9998H22.1388V36.9229Z" fill="#EDEDED"/>
<path d="M24.5997 31.9998H27.0596V27.0767H24.5997V31.9998Z" fill="#EDEDED"/>
<path d="M27.0582 27.0769H29.5181V22.1538H27.0582V27.0769Z" fill="#EDEDED"/>
<path d="M29.5191 22.1538H31.979V17.2307H29.5191V22.1538Z" fill="#EDEDED"/>
<path d="M31.9776 17.231H34.4375V12.3079H31.9776V17.231Z" fill="#EDEDED"/>
<path d="M34.4386 12.3079H36.8984V7.38479H34.4386V12.3079Z" fill="#EDEDED"/>
<path d="M36.899 7.38452H39.3589V4.92299H36.899V7.38452Z" fill="#EDEDED"/>
<path d="M51.6573 12.3079H54.1172V9.84633H51.6573V12.3079Z" fill="#EDEDED"/>
<path d="M49.1983 9.84595H51.6582V7.38441H49.1983V9.84595Z" fill="#EDEDED"/>
<path d="M51.6573 22.1538H54.1172V19.6923H51.6573V22.1538Z" fill="#EDEDED"/>
<path d="M49.1983 24.6152H51.6582V22.1537H49.1983V24.6152Z" fill="#EDEDED"/>
<path d="M44.277 27.0769H46.7368V24.6154H44.277V27.0769Z" fill="#EDEDED"/>
<path d="M46.7379 4.9231H49.1978V2.46156L46.7379 2.46156V4.9231Z" fill="#AD1714"/>
<path d="M12.2999 54.1538H14.7598V51.6923H12.2999V54.1538Z" fill="#FF3314"/>
<path d="M14.7589 56.6152H17.2188V51.6922H14.7589V56.6152Z" fill="#AD1714"/>
<path d="M17.2193 44.3076H19.6792V41.8461H17.2193V44.3076Z" fill="#FF3314"/>
<path d="M19.6803 46.7693H22.1401V41.8462H19.6803V46.7693Z" fill="#AD1714"/>
<path d="M22.1388 34.4614H24.5986V31.9999H22.1388V34.4614Z" fill="#FF3314"/>
<path d="M24.5997 36.9229H27.0596V31.9998H24.5997V36.9229Z" fill="#AD1714"/>
<path d="M27.0582 24.6152H29.5181V22.1537H27.0582V24.6152Z" fill="#FF3314"/>
<path d="M29.5191 27.0769H31.979V22.1538H29.5191V27.0769Z" fill="#AD1714"/>
<path d="M31.9776 14.7693H34.4375V12.3078H31.9776V14.7693Z" fill="#FF3314"/>
<path d="M34.4386 17.231H36.8984V12.3079H34.4386V17.231Z" fill="#AD1714"/>
<path d="M36.899 7.38452H39.3589V4.92299H36.899V7.38452Z" fill="#FF3314"/>
<path d="M39.3575 9.84595H41.8174V4.92288H39.3575V9.84595Z" fill="#AD1714"/>
<path d="M49.1983 9.84595H51.6582V7.38441H49.1983V9.84595Z" fill="#FF3314"/>
<path d="M49.1983 7.38452H51.6582V4.92299H49.1983V7.38452Z" fill="#AD1714"/>
<path d="M54.1178 17.231H56.5776V14.7694H54.1178V17.231Z" fill="#AD1714"/>
<path d="M56.5768 17.231H59.0366V12.3079H56.5768V17.231Z" fill="#AD1714"/>
<path d="M49.1983 24.6152H51.6582V22.1537H49.1983V24.6152Z" fill="#FF3314"/>
<path d="M49.1975 27.0769H54.1172V24.6154H49.1975V27.0769Z" fill="#AD1714"/>
<path d="M54.1178 17.231H56.5776V14.7694H54.1178V17.231Z" fill="#FF3314"/>
</svg>
