<svg width="16" height="17" viewBox="0 0 16 17" fill="none" xmlns="http://www.w3.org/2000/svg">
<path d="M2.36895 8.20367H1.18457V8.79627H2.36895V8.20367Z" fill="#E8C96F"/>
<path d="M14.8055 8.20367H13.6211V8.79627H14.8055V8.20367Z" fill="#E8C96F"/>
<path d="M3.55313 3.46295H2.96094V4.05554H3.55313V3.46295Z" fill="#E8C96F"/>
<path d="M13.0277 3.46295H12.4355V4.05554H13.0277V3.46295Z" fill="#E8C96F"/>
<path d="M13.0277 12.9445H12.4355V13.5371H13.0277V12.9445Z" fill="#E8C96F"/>
<path d="M3.55313 12.9445H2.96094V13.5371H3.55313V12.9445Z" fill="#E8C96F"/>
<path d="M8.29043 1.68518H7.69824V2.87037H8.29043V1.68518Z" fill="#E8C96F"/>
<path d="M8.29043 14.1296H7.69824V15.3148H8.29043V14.1296Z" fill="#E8C96F"/>
<path d="M5.32989 5.24079V5.83338H4.7377V5.24079H4.14551V6.42597H5.92208V4.64819H4.7377V5.24079H5.32989Z" fill="#E8C96F"/>
<path d="M4.1459 5.24073V4.64813H4.73809V4.05554H3.55371V5.24073H4.1459Z" fill="#E8C96F"/>
<path d="M11.844 5.24079H11.2518V5.83338H10.6596V5.24079H11.2518V4.64819H10.0674V6.42597H11.844V5.24079Z" fill="#E8C96F"/>
<path d="M11.8441 5.24073H12.4363V4.05554H11.252V4.64813H11.8441V5.24073Z" fill="#E8C96F"/>
<path d="M10.6596 11.7593V11.1667H11.2518V11.7593H11.844V10.5741H10.0674V12.3519H11.2518V11.7593H10.6596Z" fill="#E8C96F"/>
<path d="M11.8441 11.7593V12.3519H11.252V12.9445H12.4363V11.7593H11.8441Z" fill="#E8C96F"/>
<path d="M4.14551 11.7593H4.7377V11.1667H5.32989V11.7593H4.7377V12.3519H5.92208V10.5741H4.14551V11.7593Z" fill="#E8C96F"/>
<path d="M4.1459 11.7593H3.55371V12.9445H4.73809V12.3519H4.1459V11.7593Z" fill="#E8C96F"/>
<path d="M8.88281 7.61109V8.20368H13.6203V7.61109H11.8438V7.01849H9.475V7.61109H8.88281Z" fill="#E8C96F"/>
<path d="M8.88281 9.38892H9.475V9.98151H11.8438V9.38892H13.6203V8.79633H8.88281V9.38892Z" fill="#C29D4E"/>
<path d="M7.10666 7.61109H6.51447V7.01849H4.14571V7.61109H2.36914V8.20368H7.10666V7.61109Z" fill="#E8C96F"/>
<path d="M7.10666 9.38892V8.79633H2.36914V9.38892H4.14571V9.98151H6.51447V9.38892H7.10666Z" fill="#C29D4E"/>
<path d="M8.29082 7.61115H7.69863V8.20374H7.10645V8.79633H7.69863V9.38892H8.29082V8.79633H8.88301V8.20374H8.29082V7.61115Z" fill="#E8C96F"/>
<path d="M7.10586 7.6111H7.69805V2.87036H7.10586V4.64814H6.51367V7.01851H7.10586V7.6111Z" fill="#E8C96F"/>
<path d="M8.8832 7.6111V7.01851H9.47539V4.64814H8.8832V2.87036H8.29102V7.6111H8.8832Z" fill="#C29D4E"/>
<path d="M7.10586 9.38885V9.98145H6.51367V12.3518H7.10586V14.1296H7.69805V9.38885H7.10586Z" fill="#E8C96F"/>
<path d="M8.8832 9.38885H8.29102V14.1296H8.8832V12.3518H9.47539V9.98145H8.8832V9.38885Z" fill="#C29D4E"/>
<path d="M8.29043 8.79633H7.69824V9.38892H8.29043V8.79633Z" fill="#C29D4E"/>
<path d="M8.8832 8.20367H8.29102V8.79627H8.8832V8.20367Z" fill="#C29D4E"/>
<path d="M11.8441 12.3519H11.252V12.9445H11.8441V12.3519Z" fill="#C29D4E"/>
<path d="M10.6596 11.7593V10.5741H10.0674V12.3519H11.2518V11.7593H10.6596Z" fill="#C29D4E"/>
<path d="M4.7377 12.3519H4.14551V12.9445H4.7377V12.3519Z" fill="#C29D4E"/>
<path d="M5.32949 11.7592V10.574H5.92168V12.3518H4.7373V11.7592H5.32949Z" fill="#C29D4E"/>
<path d="M11.2518 5.83338H10.0674V6.42597H11.844V5.24078H11.2518V5.83338Z" fill="#C29D4E"/>
<path d="M12.4359 4.64813H11.8438V5.24072H12.4359V4.64813Z" fill="#C29D4E"/>
<path d="M4.73672 5.83338H5.9211V6.42597H4.14453V5.24078H4.73672V5.83338Z" fill="#C29D4E"/>
<path d="M4.14492 4.64819H3.55273V5.24079H4.14492V4.64819Z" fill="#C29D4E"/>
<path d="M8.29043 7.61115H7.69824V8.20374H8.29043V7.61115Z" fill="white"/>
<path d="M3.55313 3.46295H2.96094V4.05554H3.55313V3.46295Z" fill="white"/>
<path d="M7.69863 2.87036H7.10645V5.24073H7.69863V2.87036Z" fill="white"/>
<path d="M7.69863 9.38885H7.10645V11.7592H7.69863V9.38885Z" fill="white"/>
<path d="M13.0277 3.46295H12.4355V4.05554H13.0277V3.46295Z" fill="white"/>
<path d="M13.0277 12.9445H12.4355V13.5371H13.0277V12.9445Z" fill="white"/>
<path d="M3.55313 12.9445H2.96094V13.5371H3.55313V12.9445Z" fill="white"/>
<path d="M4.7379 7.61115H2.36914V8.20374H4.7379V7.61115Z" fill="#EDEDED"/>
<path d="M11.2516 7.61115H8.88281V8.20374H11.2516V7.61115Z" fill="#EDEDED"/>
<path d="M5.32949 5.24078H4.7373V5.83338H5.32949V5.24078Z" fill="#1A1A1A"/>
<path d="M4.7377 4.64819H4.14551V5.24079H4.7377V4.64819Z" fill="#1A1A1A"/>
<path d="M8.8832 8.79633H8.29102V9.38892H8.8832V8.79633Z" fill="#1A1A1A"/>
<path d="M8.8832 7.61115H8.29102V8.20374H8.8832V7.61115Z" fill="#1A1A1A"/>
<path d="M9.475 7.01849H8.88281V7.61109H9.475V7.01849Z" fill="#1A1A1A"/>
<path d="M11.8434 7.0185V6.42591H10.0668V4.64813H9.47461V7.0185H11.8434Z" fill="#1A1A1A"/>
<path d="M6.51427 4.64819H5.92208V6.42597H4.14551V7.01856H6.51427V4.64819Z" fill="#1A1A1A"/>
<path d="M9.475 9.38885H8.88281V9.98145H9.475V9.38885Z" fill="#1A1A1A"/>
<path d="M9.47461 12.3519H10.0668V10.5741H11.8434V9.98151H9.47461V12.3519Z" fill="#1A1A1A"/>
<path d="M4.14551 9.98151V10.5741H5.92208V12.3519H6.51427V9.98151H4.14551Z" fill="#1A1A1A"/>
<path d="M7.10586 7.01849H6.51367V7.61109H7.10586V7.01849Z" fill="#1A1A1A"/>
<path d="M7.10586 9.38885H6.51367V9.98145H7.10586V9.38885Z" fill="#1A1A1A"/>
<path d="M4.1459 5.24078H3.55371V6.42597H4.1459V5.24078Z" fill="#1A1A1A"/>
<path d="M3.55313 4.05554H2.96094V5.24073H3.55313V4.05554Z" fill="#1A1A1A"/>
<path d="M4.73809 3.46295H3.55371V4.05554H4.73809V3.46295Z" fill="#1A1A1A"/>
<path d="M3.55352 3.46295V2.87036H2.36914V4.05555H2.96133V3.46295H3.55352Z" fill="#1A1A1A"/>
<path d="M5.92168 4.05554H4.7373V4.64813H5.92168V4.05554Z" fill="#1A1A1A"/>
<path d="M11.2523 5.24078H10.6602V5.83338H11.2523V5.24078Z" fill="#1A1A1A"/>
<path d="M11.8441 4.64819H11.252V5.24079H11.8441V4.64819Z" fill="#1A1A1A"/>
<path d="M12.4359 5.24078H11.8438V6.42597H12.4359V5.24078Z" fill="#1A1A1A"/>
<path d="M13.0277 4.05554H12.4355V5.24073H13.0277V4.05554Z" fill="#1A1A1A"/>
<path d="M12.4363 3.46295H11.252V4.05554H12.4363V3.46295Z" fill="#1A1A1A"/>
<path d="M13.0277 4.05555H13.6199V2.87036H12.4355V3.46295H13.0277V4.05555Z" fill="#1A1A1A"/>
<path d="M11.2518 4.05554H10.0674V4.64813H11.2518V4.05554Z" fill="#1A1A1A"/>
<path d="M11.2523 11.1667H10.6602V11.7593H11.2523V11.1667Z" fill="#1A1A1A"/>
<path d="M11.8441 11.7593H11.252V12.3519H11.8441V11.7593Z" fill="#1A1A1A"/>
<path d="M12.4359 10.5741H11.8438V11.7593H12.4359V10.5741Z" fill="#1A1A1A"/>
<path d="M13.0277 11.7593H12.4355V12.9445H13.0277V11.7593Z" fill="#1A1A1A"/>
<path d="M12.4363 12.9445H11.252V13.5371H12.4363V12.9445Z" fill="#1A1A1A"/>
<path d="M12.4355 13.5371V14.1296H13.6199V12.9445H13.0277V13.5371H12.4355Z" fill="#1A1A1A"/>
<path d="M11.2518 12.3518H10.0674V12.9444H11.2518V12.3518Z" fill="#1A1A1A"/>
<path d="M5.32949 11.1667H4.7373V11.7593H5.32949V11.1667Z" fill="#1A1A1A"/>
<path d="M4.7377 11.7593H4.14551V12.3519H4.7377V11.7593Z" fill="#1A1A1A"/>
<path d="M4.1459 10.5741H3.55371V11.7593H4.1459V10.5741Z" fill="#1A1A1A"/>
<path d="M3.55313 11.7593H2.96094V12.9445H3.55313V11.7593Z" fill="#1A1A1A"/>
<path d="M4.73809 12.9445H3.55371V13.5371H4.73809V12.9445Z" fill="#1A1A1A"/>
<path d="M2.96133 12.9445H2.36914V14.1296H3.55352V13.5371H2.96133V12.9445Z" fill="#1A1A1A"/>
<path d="M5.92168 12.3518H4.7373V12.9444H5.92168V12.3518Z" fill="#1A1A1A"/>
<path d="M1.18438 8.20367H0V8.79627H1.18438V8.20367Z" fill="#1A1A1A"/>
<path d="M7.10666 8.20367H2.36914V8.79627H7.10666V8.20367Z" fill="#1A1A1A"/>
<path d="M13.6203 8.20367H8.88281V8.79627H13.6203V8.20367Z" fill="#1A1A1A"/>
<path d="M2.36895 7.61115H1.18457V8.20374H2.36895V7.61115Z" fill="#1A1A1A"/>
<path d="M4.14571 7.01849H2.36914V7.61109H4.14571V7.01849Z" fill="#1A1A1A"/>
<path d="M4.14571 9.38885H2.36914V9.98145H4.14571V9.38885Z" fill="#1A1A1A"/>
<path d="M2.36895 8.79633H1.18457V9.38892H2.36895V8.79633Z" fill="#1A1A1A"/>
<path d="M15.9891 8.20367H14.8047V8.79627H15.9891V8.20367Z" fill="#1A1A1A"/>
<path d="M14.8055 7.61115H13.6211V8.20374H14.8055V7.61115Z" fill="#1A1A1A"/>
<path d="M13.6203 7.01849H11.8438V7.61109H13.6203V7.01849Z" fill="#1A1A1A"/>
<path d="M13.6203 9.38885H11.8438V9.98145H13.6203V9.38885Z" fill="#1A1A1A"/>
<path d="M14.8055 8.79633H13.6211V9.38892H14.8055V8.79633Z" fill="#1A1A1A"/>
<path d="M8.29043 0.5H7.69824V1.68518H8.29043V0.5Z" fill="#1A1A1A"/>
<path d="M7.69863 1.68518H7.10645V2.87037H7.69863V1.68518Z" fill="#1A1A1A"/>
<path d="M7.69863 7.61115H7.10645V8.20374H7.69863V7.61115Z" fill="#1A1A1A"/>
<path d="M8.29043 2.87036H7.69824V7.6111H8.29043V2.87036Z" fill="#1A1A1A"/>
<path d="M7.69863 8.79633H7.10645V9.38892H7.69863V8.79633Z" fill="#1A1A1A"/>
<path d="M7.69863 14.1296H7.10645V15.3148H7.69863V14.1296Z" fill="#1A1A1A"/>
<path d="M8.29043 9.38885H7.69824V14.1296H8.29043V9.38885Z" fill="#1A1A1A"/>
<path d="M7.10586 2.87036H6.51367V4.64814H7.10586V2.87036Z" fill="#1A1A1A"/>
<path d="M9.475 2.87036H8.88281V4.64814H9.475V2.87036Z" fill="#1A1A1A"/>
<path d="M8.8832 1.68518H8.29102V2.87037H8.8832V1.68518Z" fill="#1A1A1A"/>
<path d="M8.29043 15.3148H7.69824V16.5H8.29043V15.3148Z" fill="#1A1A1A"/>
<path d="M7.10586 12.3518H6.51367V14.1296H7.10586V12.3518Z" fill="#1A1A1A"/>
<path d="M9.475 12.3518H8.88281V14.1296H9.475V12.3518Z" fill="#1A1A1A"/>
<path d="M8.8832 14.1296H8.29102V15.3148H8.8832V14.1296Z" fill="#1A1A1A"/>
</svg>
