<svg width="18" height="17" viewBox="0 0 18 17" fill="none" xmlns="http://www.w3.org/2000/svg">
<path d="M10.9017 10.6818V12.1363H10.1749V12.8636H7.26779V12.1363H6.54102V9.22723H7.26779V7.77268H7.99457V7.04541H8.72135V8.49996H9.44813V9.22723H10.1749V10.6818H10.9017Z" fill="#FF3314"/>
<path d="M5.08713 6.31787H4.36035V7.04514H5.08713V6.31787Z" fill="#1A1A1A"/>
<path d="M10.9017 4.86377H6.54102V5.59104H10.9017V4.86377Z" fill="#1A1A1A"/>
<path d="M4.36057 7.04541H3.63379V8.49996H4.36057V7.04541Z" fill="#1A1A1A"/>
<path d="M6.54047 5.59082H5.08691V6.31809H6.54047V5.59082Z" fill="#1A1A1A"/>
<path d="M14.5354 8.5H13.8086V14.3182H14.5354V8.5Z" fill="#1A1A1A"/>
<path d="M13.0822 6.31787H12.3555V7.04514H13.0822V6.31787Z" fill="#1A1A1A"/>
<path d="M13.8088 7.04541H13.082V8.49996H13.8088V7.04541Z" fill="#1A1A1A"/>
<path d="M12.3549 5.59082H10.9014V6.31809H12.3549V5.59082Z" fill="#1A1A1A"/>
<path d="M3.63401 8.5H2.90723V14.3182H3.63401V8.5Z" fill="#1A1A1A"/>
<path d="M13.8087 8.49991V14.3181H11.6284V13.5908H10.9016V12.1363H11.6284V10.6817H10.9016V9.22719H10.1748V8.49991H9.44802V7.04537H8.72124V6.31809H7.99446V7.04537H7.26768V7.77264H6.5409V9.22719H5.81412V12.1363H6.5409V13.5908H5.81412V14.3181H3.63379V8.49991H4.36057V7.04537H5.08735V6.31809H6.5409V5.59082H10.9016V6.31809H12.3551V7.04537H13.0819V8.49991H13.8087Z" fill="#AD1714"/>
<path d="M2.18066 4.13623V14.318H2.90744V8.49987H3.63422V7.04532H4.361V6.31805H5.08778V5.59078H6.54134V4.8635H10.902V5.59078H12.3556V6.31805H13.0823V7.04532H13.8091V8.49987H14.5359V14.318H15.2627V4.13623H2.18066ZM4.361 5.59078H3.63422V6.31805H2.90744V4.8635H4.361V5.59078ZM14.5359 6.31805H13.8091V5.59078H13.0823V4.8635H14.5359V6.31805Z" fill="#C29D4E"/>
<path d="M16.7157 15.0454H0.726562V15.7727H16.7157V15.0454Z" fill="#E8C96F"/>
<path d="M10.9018 13.5908H9.44824V14.3181H10.9018V13.5908Z" fill="#C29D4E"/>
<path d="M8.72092 13.5908H7.99414V14.3181H8.72092V13.5908Z" fill="#C29D4E"/>
<path d="M7.26779 13.5908H6.54102V14.3181H7.26779V13.5908Z" fill="#C29D4E"/>
<path d="M15.9887 2.68164H1.45312V3.40891H15.9887V2.68164Z" fill="#C29D4E"/>
<path d="M16.7157 1.22705H0.726562V1.95432H16.7157V1.22705Z" fill="#E8C96F"/>
<path d="M3.63401 5.59104H4.36078V4.86377H2.90723V6.31832H3.63401V5.59104Z" fill="#1A1A1A"/>
<path d="M13.8088 6.31832H14.5356V4.86377H13.082V5.59104H13.8088V6.31832Z" fill="#1A1A1A"/>
<path d="M9.44846 7.04541H8.72168V8.49996H9.44846V7.04541Z" fill="#1A1A1A"/>
<path d="M8.72092 6.31787H7.99414V7.04514H8.72092V6.31787Z" fill="#1A1A1A"/>
<path d="M10.175 8.5H9.44824V9.22727H10.175V8.5Z" fill="#1A1A1A"/>
<path d="M10.9016 9.22754H10.1748V10.6821H10.9016V9.22754Z" fill="#1A1A1A"/>
<path d="M11.6281 10.6821H10.9014V12.1367H11.6281V10.6821Z" fill="#1A1A1A"/>
<path d="M7.99436 7.04541H7.26758V7.77268H7.99436V7.04541Z" fill="#1A1A1A"/>
<path d="M7.26779 8.50022V7.77295H6.54102V9.2275H7.26779V8.50022Z" fill="#1A1A1A"/>
<path d="M6.54123 9.22754H5.81445V12.1366H6.54123V9.22754Z" fill="#1A1A1A"/>
<path d="M1.45334 4.13645V14.3183H0.726562V15.0455H16.7157V14.3183H15.9889V3.40918H1.45334V4.13645ZM7.99435 14.3183V13.591H8.72113V14.3183H7.99435ZM15.2621 4.13645V14.3183H11.6282V13.591H10.9015V14.3183H9.44791V13.591H10.9015V12.1365H10.1747V12.8637H7.26757V12.1365H6.54079V13.591H7.26757V14.3183H6.54079V13.591H5.81401V14.3183H2.18012V4.13645H15.2621Z" fill="#1A1A1A"/>
<path d="M0.726779 15.7727V15.0454H0V16.5H17.4427V15.0454H16.7159V15.7727H0.726779Z" fill="#1A1A1A"/>
<path d="M0 0.5V2.68182H0.726779V3.40909H1.45356V2.68182H15.9891V3.40909H16.7159V2.68182H17.4427V0.5H0ZM16.7159 1.95455H0.726779V1.22727H16.7159V1.95455Z" fill="#1A1A1A"/>
<path d="M7.99436 12.1362H7.26758V12.8635H7.99436V12.1362Z" fill="#E8C96F"/>
<path d="M7.99436 11.4092H7.26758V12.1365H7.99436V11.4092Z" fill="#E8C96F"/>
<path d="M7.99436 10.6821H7.26758V11.4094H7.99436V10.6821Z" fill="#E8C96F"/>
<path d="M8.72092 9.22754H7.99414V10.6821H8.72092V9.22754Z" fill="#E8C96F"/>
<path d="M8.72092 10.6821H7.99414V12.8639H8.72092V10.6821Z" fill="white"/>
<path d="M9.44846 10.6821H8.72168V11.4094H9.44846V10.6821Z" fill="#E8C96F"/>
<path d="M9.44846 11.4092H8.72168V12.8637H9.44846V11.4092Z" fill="#E8C96F"/>
</svg>
