<svg width="12" height="17" viewBox="0 0 12 17" fill="none" xmlns="http://www.w3.org/2000/svg">
<path d="M11.0697 3.57702V10.9616H10.4547V12.1924H9.22476V12.8078H8.60979V12.1924H7.37986V12.8078H6.76489V12.1924H5.53496V12.8078H4.92V12.1924H3.69006V10.9616H3.0751V10.3462H2.46013V9.73086H1.84517V9.11548H1.2302V8.50009H0.615234V6.65394H1.84517V7.26932H2.46013V7.88471H3.0751V7.26932H3.69006V3.57702H4.30503V2.34625H4.92V1.73086H6.14993V1.11548H8.60979V1.73086H9.83972V2.34625H10.4547V3.57702H11.0697Z" fill="#FF3314"/>
<path d="M10.4541 12.8076V15.8845H3.68945V12.8076H4.91939V13.423H5.53435V12.8076H6.76428V13.423H7.37925V12.8076H8.60918V13.423H9.22415V12.8076H10.4541Z" fill="#EDEDED"/>
<path d="M9.83958 9.11548H9.22461V9.73086H9.83958V9.11548Z" fill="#AD1714"/>
<path d="M9.22434 9.73071H8.60938V10.3461H9.22434V9.73071Z" fill="#AD1714"/>
<path d="M8.61008 10.3462H7.99512V10.9616H8.61008V10.3462Z" fill="#AD1714"/>
<path d="M9.83958 7.88477H9.22461V8.50015H9.83958V7.88477Z" fill="#AD1714"/>
<path d="M9.83958 5.4231H9.22461V6.03848H9.83958V5.4231Z" fill="#AD1714"/>
<path d="M10.4548 2.34619H9.83984V2.96158H10.4548V2.34619Z" fill="#AD1714"/>
<path d="M3.69016 7.26929H3.0752V8.50006H3.69016V7.26929Z" fill="#AD1714"/>
<path d="M9.83958 6.65381H9.22461V7.26919H9.83958V6.65381Z" fill="#AD1714"/>
<path d="M10.4551 3.5769H9.84009V4.19229H10.4551V4.80767H9.84009V5.42306H10.4551V6.03844H9.84009V6.65382H10.4551V7.26921H9.84009V7.88459H10.4551V8.49998H9.84009V9.11536H10.4551V9.73074H9.84009V10.3461H9.22513V10.9615H8.61016V11.5769H7.99519V10.9615H7.38023V11.5769H6.76526V10.9615H6.15029V11.5769H5.53533V10.9615H4.92036V11.5769H4.3054V10.9615H3.69043V12.1923H4.92036V12.8077H5.53533V12.1923H6.76526V12.8077H7.38023V12.1923H8.61016V12.8077H9.22513V12.1923H10.4551V10.9615H11.07V3.5769H10.4551Z" fill="#AD1714"/>
<path d="M7.38059 4.19238H6.76562V5.42315H7.38059V4.19238Z" fill="white"/>
<path d="M7.38059 7.26929H6.76562V8.50006H7.38059V7.26929Z" fill="white"/>
<path d="M6.76536 5.4231H6.15039V6.03848H6.76536V5.4231Z" fill="white"/>
<path d="M7.99485 5.4231H7.37988V6.03848H7.99485V5.4231Z" fill="white"/>
<path d="M8.61008 4.80786H7.99512V5.42325H8.61008V4.80786Z" fill="white"/>
<path d="M7.99485 6.65381H7.37988V7.26919H7.99485V6.65381Z" fill="white"/>
<path d="M8.61008 7.26929H7.99512V7.88467H8.61008V7.26929Z" fill="white"/>
<path d="M6.76536 6.65381H6.15039V7.26919H6.76536V6.65381Z" fill="white"/>
<path d="M6.15012 7.26929H5.53516V7.88467H6.15012V7.26929Z" fill="white"/>
<path d="M6.15012 4.80786H5.53516V5.42325H6.15012V4.80786Z" fill="white"/>
<path d="M7.38059 6.03857H6.76562V6.65396H7.38059V6.03857Z" fill="white"/>
<path d="M6.14985 6.03857H4.91992V6.65396H6.14985V6.03857Z" fill="white"/>
<path d="M9.22505 6.03857H7.99512V6.65396H9.22505V6.03857Z" fill="white"/>
<path d="M4.3054 10.3462H3.69043V10.9616H4.3054V10.3462Z" fill="white"/>
<path d="M4.92063 10.9617H4.30566V11.5771H4.92063V10.9617Z" fill="white"/>
<path d="M5.53489 10.3462H4.91992V10.9616H5.53489V10.3462Z" fill="white"/>
<path d="M6.15012 10.9617H5.53516V11.5771H6.15012V10.9617Z" fill="white"/>
<path d="M6.76536 10.3462H6.15039V10.9616H6.76536V10.3462Z" fill="white"/>
<path d="M7.38059 10.9617H6.76562V11.5771H7.38059V10.9617Z" fill="white"/>
<path d="M7.99485 10.3462H7.37988V10.9616H7.99485V10.3462Z" fill="white"/>
<path d="M8.61008 10.9617H7.99512V11.5771H8.61008V10.9617Z" fill="white"/>
<path d="M9.22532 10.3462H8.61035V10.9616H9.22532V10.3462Z" fill="white"/>
<path d="M9.83958 10.9617H9.22461V11.5771H9.83958V10.9617Z" fill="white"/>
<path d="M10.4548 10.3462H9.83984V10.9616H10.4548V10.3462Z" fill="white"/>
<path d="M4.3054 12.8076H3.69043V14.0384H4.3054V12.8076Z" fill="white"/>
<path d="M5.53489 13.4229H4.91992V14.0382H5.53489V13.4229Z" fill="white"/>
<path d="M7.99485 12.8076H7.37988V14.0384H7.99485V12.8076Z" fill="white"/>
<path d="M6.76536 12.8076H6.15039V14.0384H6.76536V12.8076Z" fill="white"/>
<path d="M9.22532 13.4229H8.61035V14.0382H9.22532V13.4229Z" fill="white"/>
<path d="M9.83911 12.8076V14.0384H9.22415V15.2692H8.60918V14.0384H7.99422V15.2692H7.37925V14.0384H6.76428V15.2692H6.14932V14.0384H5.53435V15.2692H4.91939V14.0384H4.30442V15.2692H3.68945V15.8845H10.4541V12.8076H9.83911Z" fill="#CAD2D5"/>
<path d="M3.69016 10.9614H3.0752V12.1922H3.69016V10.9614Z" fill="#1A1A1A"/>
<path d="M2.45969 9.73071H1.84473V10.3461H2.45969V9.73071Z" fill="#1A1A1A"/>
<path d="M3.07493 10.3462H2.45996V10.9616H3.07493V10.3462Z" fill="#1A1A1A"/>
<path d="M1.84446 9.11548H1.22949V9.73086H1.84446V9.11548Z" fill="#1A1A1A"/>
<path d="M3.07493 7.26929H2.45996V7.88467H3.07493V7.26929Z" fill="#1A1A1A"/>
<path d="M11.0691 10.9614H10.4541V12.1922H11.0691V10.9614Z" fill="#1A1A1A"/>
<path d="M8.60928 0.5H6.14941V1.11538H8.60928V0.5Z" fill="#1A1A1A"/>
<path d="M6.14985 1.11548H4.91992V1.73086H6.14985V1.11548Z" fill="#1A1A1A"/>
<path d="M4.30442 2.34619H3.68945V3.57696H4.30442V2.34619Z" fill="#1A1A1A"/>
<path d="M4.91965 1.73071H4.30469V2.3461H4.91965V1.73071Z" fill="#1A1A1A"/>
<path d="M9.83931 1.11548H8.60938V1.73086H9.83931V1.11548Z" fill="#1A1A1A"/>
<path d="M10.4548 1.73071H9.83984V2.3461H10.4548V1.73071Z" fill="#1A1A1A"/>
<path d="M11.0691 2.34619H10.4541V3.57696H11.0691V2.34619Z" fill="#1A1A1A"/>
<path d="M3.69016 3.5769H3.0752V7.26921H3.69016V3.5769Z" fill="#1A1A1A"/>
<path d="M11.6843 3.5769H11.0693V10.9615H11.6843V3.5769Z" fill="#1A1A1A"/>
<path d="M1.2302 8.5H0.615234V9.11538H1.2302V8.5Z" fill="#1A1A1A"/>
<path d="M2.45969 6.65381H1.84473V7.26919H2.45969V6.65381Z" fill="#1A1A1A"/>
<path d="M1.84517 6.03857H0.615234V6.65396H1.84517V6.03857Z" fill="#1A1A1A"/>
<path d="M0.614966 6.65381H0V8.49996H0.614966V6.65381Z" fill="#1A1A1A"/>
<path d="M10.4541 15.8845H3.68945V16.4999H10.4541V15.8845Z" fill="#1A1A1A"/>
<path d="M4.91938 12.1924H3.68945V12.8078H4.91938V12.1924Z" fill="#1A1A1A"/>
<path d="M6.76411 12.1924H5.53418V12.8078H6.76411V12.1924Z" fill="#1A1A1A"/>
<path d="M5.53489 12.8076H4.91992V13.423H5.53489V12.8076Z" fill="#1A1A1A"/>
<path d="M7.37961 12.8076H6.76465V13.423H7.37961V12.8076Z" fill="#1A1A1A"/>
<path d="M9.22434 12.8076H8.60938V13.423H9.22434V12.8076Z" fill="#1A1A1A"/>
<path d="M8.60981 12.1924H7.37988V12.8078H8.60981V12.1924Z" fill="#1A1A1A"/>
<path d="M10.4541 15.8845H11.0691V12.8076H10.4541V15.8845Z" fill="#1A1A1A"/>
<path d="M10.4545 12.1924H9.22461V12.8078H10.4545V12.1924Z" fill="#1A1A1A"/>
<path d="M3.69016 12.8076H3.0752V15.8845H3.69016V12.8076Z" fill="#1A1A1A"/>
</svg>
